<svg width="90" height="34" viewBox="0 0 90 394" fill="none" xmlns="http://www.w3.org/2000/svg">
<path d="M216.936 66.9631C195.143 49.2035 167.188 40.8284 139.22 43.6803C111.252 46.5322 85.5627 60.3776 67.8031 82.1705C50.0434 103.963 41.6683 131.919 44.5202 159.887C47.3721 187.855 61.2175 213.544 83.0104 231.304L149.973 149.133L216.936 66.9631Z" fill="white"/>
<path d="M42.0806 325.71C63.5846 343.819 91.4014 352.643 119.412 350.242C147.422 347.842 173.331 334.412 191.44 312.908C209.548 291.404 218.372 263.587 215.972 235.577C213.571 207.567 200.141 181.657 178.637 163.549L110.359 244.63L42.0806 325.71Z" fill="white"/>
</svg>
