<svg width="242" height="232" viewBox="0 0 242 232" fill="none" xmlns="http://www.w3.org/2000/svg">
<path d="M92.4683 20.8115C101.449 -6.82777 140.551 -6.82779 149.532 20.8115L157.371 44.9392C161.387 57.2999 172.906 65.6687 185.903 65.6687H211.272C240.334 65.6687 252.417 102.857 228.906 119.939L208.382 134.851C197.867 142.49 193.467 156.031 197.483 168.392L205.323 192.52C214.304 220.159 182.669 243.143 159.158 226.061L138.634 211.149C128.119 203.51 113.881 203.51 103.366 211.149L82.8422 226.061C59.3308 243.143 27.6964 220.159 36.6769 192.52L44.5165 168.392C48.5327 156.031 44.133 142.49 33.6184 134.851L13.0941 119.939C-10.4173 102.857 1.66598 65.6687 30.7277 65.6687H56.097C69.0938 65.6687 80.6125 57.2999 84.6287 44.9392L92.4683 20.8115Z" fill="#D43F5C"/>
</svg>
