<svg width="27" height="27" viewBox="0 0 27 27" fill="none" xmlns="http://www.w3.org/2000/svg">
<path d="M13.3033 26.032C9.71925 26.032 6.71125 24.8373 4.27925 22.448C1.86858 20.0587 0.66325 17.072 0.66325 13.488C0.66325 9.904 1.93258 6.84267 4.47125 4.304C7.00992 1.744 10.0713 0.463999 13.6553 0.463999C17.2606 0.463999 20.2899 1.744 22.7433 4.304C25.2179 6.84267 26.4553 9.94667 26.4553 13.616C26.4553 15.92 26.0179 17.7867 25.1433 19.216C24.2686 20.624 23.1059 21.328 21.6553 21.328C20.6099 21.328 19.7779 20.976 19.1593 20.272C18.5406 19.5467 18.2099 18.5227 18.1673 17.2C16.9726 19.952 15.0633 21.328 12.4393 21.328C10.6046 21.328 8.98325 20.592 7.57525 19.12C6.18858 17.648 5.49525 15.7813 5.49525 13.52C5.49525 11.2587 6.15658 9.36 7.47925 7.824C8.80192 6.288 10.5513 5.52 12.7273 5.52C13.7086 5.52 14.6366 5.776 15.5113 6.288C16.3859 6.8 17.0153 7.408 17.3993 8.112V5.968H20.4713V17.136C20.4713 18.6293 21.0579 19.376 22.2313 19.376C22.8926 19.376 23.4899 18.896 24.0233 17.936C24.5779 16.9547 24.8553 15.6747 24.8553 14.096C24.8553 10.6827 23.8206 7.792 21.7513 5.424C19.7033 3.056 17.0473 1.872 13.7833 1.872C10.5406 1.872 7.77792 3.01333 5.49525 5.296C3.21258 7.57867 2.07125 10.3093 2.07125 13.488C2.07125 16.6667 3.14858 19.3227 5.30325 21.456C7.45792 23.568 10.1246 24.624 13.3033 24.624C15.8633 24.624 17.8259 23.984 19.1913 22.704L19.8953 23.888C19.1486 24.528 18.1566 25.04 16.9193 25.424C15.6819 25.8293 14.4766 26.032 13.3033 26.032ZM17.4313 13.392C17.4313 12.0053 17.0259 10.864 16.2153 9.968C15.4046 9.072 14.3486 8.624 13.0473 8.624C11.7459 8.624 10.7006 9.08267 9.91125 10C9.12192 10.9173 8.72725 12.048 8.72725 13.392C8.72725 14.7147 9.11125 15.8773 9.87925 16.88C10.6686 17.8613 11.7353 18.352 13.0793 18.352C14.4233 18.352 15.4793 17.872 16.2473 16.912C17.0366 15.9307 17.4313 14.7573 17.4313 13.392Z" fill="white"/>
</svg>
