<svg width="195" height="234" viewBox="0 0 195 234" fill="none" xmlns="http://www.w3.org/2000/svg">
<path d="M38.4162 39.5322C30.1086 11.6832 62.2911 -10.5266 85.3813 7.12061L105.538 22.5257C115.864 30.4178 130.098 30.7631 140.795 23.381L161.674 8.97139C185.593 -7.53544 216.661 16.2087 207.013 43.6221L198.59 67.5526C194.276 79.8122 198.346 93.456 208.672 101.348L228.828 116.753C251.919 134.4 238.937 171.285 209.884 170.58L184.522 169.965C171.529 169.65 159.811 177.737 155.496 189.996L147.074 213.927C137.425 241.34 98.3346 240.392 90.027 212.543L82.7749 188.232C79.0596 175.778 67.7473 167.132 54.7543 166.817L29.3924 166.202C0.33924 165.497 -10.8386 128.026 13.0802 111.519L33.96 97.1098C44.6568 89.7277 49.3836 76.2974 45.6683 63.8429L38.4162 39.5322Z" fill="#27AE60"/>
</svg>
