<svg width="448" height="484" viewBox="0 0 448 484" fill="none" xmlns="http://www.w3.org/2000/svg">
<path opacity="0.2" d="M433.412 270.927L296.817 483.087L18.0979 303.639C18.0785 302.926 18.0777 302.215 18.0806 301.499C18.2809 290.472 21.2099 280.117 26.6579 271.174C32.1059 262.231 39.9382 254.923 49.5939 249.772C76.5804 235.634 113.912 240.027 148.543 248.065C183.174 256.103 218.413 267.53 252.043 266.485C292.714 265.239 327.25 244.032 342.314 212.275L433.412 270.927Z" fill="#E5F5FE"/>
<g opacity="0.8">
<path opacity="0.2" d="M68.0947 170.499C47.8176 184.379 31.0946 202.839 19.2803 224.385C-1.13098 262.162 -12.9696 319.47 24.493 352.646C67.3568 390.611 129.768 366.338 180.906 380.312C213.486 389.198 238.78 412.326 270.685 422.924C317.537 438.515 375.41 421.904 402.683 385.242C427.177 352.27 426.407 308.056 407.582 272.273C388.756 236.49 353.994 208.558 315.307 188.43C266.194 162.868 209.121 138.846 150.541 142.08C120.966 143.782 92.436 153.616 68.0947 170.499Z" fill="#D6D6D6"/>
</g>
<g opacity="0.2">
<path opacity="0.2" d="M319.326 328.058C355.109 343.006 399.103 347.245 425.857 318.277C452.612 289.308 454.229 246.947 435.513 213.52C417.834 181.929 386.699 160.136 368.109 129.033C357.527 111.353 352.973 90.6122 342.626 72.7916C322.215 37.6999 278.441 18.1992 241.386 24.3069C206.263 30.1163 179.336 61.848 150.791 88.2257C135.828 102.043 113.753 110.757 95.21 120.868C75.097 131.859 56.3971 143.383 42.8314 162.711C16.6422 200.001 21.6665 229.488 41.0258 257.718C60.3851 285.948 110.361 295.4 149.363 286.639C212.182 272.603 261.138 303.706 319.326 328.058Z" fill="#E5F5FE"/>
</g>
<path d="M372.804 248.298C376.409 250.878 380.77 252.184 385.199 252.01C389.629 251.837 393.874 250.194 397.266 247.34C401.661 243.521 404.55 238.26 405.415 232.502C406.008 228.904 405.766 225.217 404.707 221.726C403.648 218.236 401.8 215.036 399.307 212.374C396.837 209.914 393.729 208.195 390.332 207.409C386.936 206.624 383.388 206.805 380.089 207.93C364.388 213.52 359.364 238.108 372.804 248.298Z" fill="#74CEC8"/>
<path d="M369.41 206.995L367.592 207.735L379.658 237.389L381.475 236.649L369.41 206.995Z" fill="#021317"/>
<path d="M418.122 214.835L382.835 229.952L383.608 231.756L418.895 216.639L418.122 214.835Z" fill="#021317"/>
<path d="M391.8 208.005L337.857 338.171L339.67 338.923L393.613 208.757L391.8 208.005Z" fill="#021317"/>
<path d="M391.55 270.468C391.519 274.021 392.672 277.484 394.827 280.31C396.982 283.136 400.016 285.164 403.452 286.074C407.977 287.193 412.752 286.664 416.923 284.583C419.557 283.32 421.864 281.467 423.666 279.169C425.469 276.871 426.718 274.189 427.317 271.331C427.802 268.575 427.504 265.739 426.458 263.144C425.412 260.549 423.659 258.3 421.398 256.651C410.486 248.941 392.053 256.965 391.55 270.468Z" fill="#74CEC8"/>
<path d="M405.103 271.087L404.317 272.885L428.029 283.244L428.814 281.446L405.103 271.087Z" fill="#021317"/>
<path d="M398.858 250.45L396.895 250.47L397.137 274.65L399.099 274.63L398.858 250.45Z" fill="#021317"/>
<path d="M425.904 262.356L358.804 289.33L359.536 291.151L426.636 264.177L425.904 262.356Z" fill="#021317"/>
<path d="M348.593 149.004H230.898V232.612H348.593V149.004Z" fill="#E5F5FE"/>
<path d="M286.072 308.997C284.615 308.994 283.165 308.809 281.754 308.448C275.473 306.878 270.214 301.257 267.968 293.972C265.723 286.686 266.571 279.495 267.497 273.827C270.17 257.433 276.558 241.868 286.173 228.324C295.788 214.779 308.374 203.614 322.969 195.683C321.128 192.877 318.612 190.577 315.652 188.995C307.959 185.038 297.894 186.514 285.726 193.36C268.279 203.411 253.536 217.552 242.766 234.564C231.995 251.576 225.519 270.95 223.896 291.02L221.949 290.879C223.583 270.487 230.154 250.799 241.096 233.514C252.037 216.228 267.021 201.865 284.753 191.664C297.533 184.457 308.226 182.981 316.532 187.236C319.865 188.995 322.696 191.572 324.759 194.726C335.864 188.931 347.883 185.091 360.29 183.374L360.557 185.305C348.417 186.998 336.656 190.753 325.779 196.406C328.621 201.367 330.725 208.495 330.976 218.748C331.551 244.563 324.37 269.957 310.361 291.648C307.153 296.764 303.003 301.224 298.13 304.79C294.64 307.4 290.428 308.87 286.072 308.997ZM324.005 197.363C315.394 202.042 307.469 207.886 300.454 214.729C284.091 230.744 273.252 251.553 269.507 274.141C268.612 279.605 267.843 286.702 269.9 293.391C271.956 300.079 276.714 305.072 282.319 306.548C295.084 309.892 305.871 295.165 308.807 290.565C322.602 269.212 329.669 244.21 329.092 218.795C328.778 208.778 326.706 201.979 324.005 197.363Z" fill="white"/>
<path d="M348.593 149.413H230.898V165.648H348.593V149.413Z" fill="#E5F5FE"/>
<path d="M399.669 338.516C399.669 338.516 383.23 248.753 325.136 248.753C267.043 248.753 250.29 338.484 250.29 338.484" fill="#E5F5FE"/>
<path d="M127.68 192.433C123.771 191.318 121.4 198.148 120.222 203.659L113.597 194.584L91.6152 209.28L98.4452 232.298L127.947 214.21C127.947 214.21 135.154 194.568 127.68 192.433Z" fill="#ED985F"/>
<path d="M297.8 236.836V284.316L282.476 301.226L248.703 338.516H179.132L181.927 273.592L297.8 236.836Z" fill="#2A4E96"/>
<path d="M259.836 212.216L255.11 230.869L207.866 227.917L213.518 213.441L217.506 179.558L250.18 158.221L259.836 212.216Z" fill="#FFBE9D"/>
<path d="M236.52 179.433C234.589 184.407 231.681 188.945 227.968 192.777C224.254 196.609 219.811 199.658 214.899 201.744L217.38 180.579L227.13 174.173C230.286 175.932 233.301 177.674 236.52 179.433Z" fill="#021317"/>
<path d="M254.481 141.342L253.727 143.352L239.597 180.94C239.597 180.94 220.394 200.723 200.595 183.358C189.605 173.686 186.464 148.062 191.913 127.965C192.085 127.321 192.274 126.693 192.462 126.065L192.541 125.798C192.541 125.673 192.619 125.531 192.666 125.406V125.217C192.902 124.495 193.153 123.773 193.42 123.066C193.687 122.36 193.781 122.061 193.985 121.575C194.189 121.088 194.503 120.303 194.77 119.675C197.675 113.065 201.741 107.616 207.033 104.398C208.227 103.652 209.495 103.032 210.817 102.545C211.423 102.308 212.041 102.104 212.669 101.933C213.187 101.791 213.706 101.681 214.239 101.571C215.653 101.312 217.088 101.181 218.526 101.179H218.95C231.62 101.273 239.785 106.423 245.029 112.97C251.671 121.245 253.665 131.812 254.277 137.417V138.014V138.28V138.83C254.277 139.348 254.277 139.803 254.371 140.18C254.465 140.557 254.371 141.044 254.371 141.217L254.481 141.342Z" fill="#FFBE9D"/>
<path d="M209.969 162.225C209.393 162.213 208.826 162.085 208.302 161.848C207.777 161.611 207.306 161.27 206.917 160.846C206.528 160.422 206.229 159.923 206.039 159.38C205.848 158.837 205.769 158.261 205.808 157.687L207.001 142.614L208.948 142.771L207.755 157.828C207.729 158.145 207.771 158.464 207.876 158.765C207.982 159.065 208.149 159.34 208.367 159.571C208.579 159.806 208.838 159.994 209.128 160.121C209.417 160.248 209.731 160.312 210.047 160.309V162.272L209.969 162.225Z" fill="#021317"/>
<path d="M219.138 144.09C219.138 145.22 219.798 146.147 220.614 146.147C221.431 146.147 222.106 145.22 222.106 144.074C222.106 142.928 221.509 141.986 220.614 141.986C219.719 141.986 219.138 142.944 219.138 144.09Z" fill="#021317"/>
<path d="M196.654 144.09C196.654 145.237 197.314 146.163 198.13 146.163C198.947 146.163 199.606 145.237 199.606 144.09C199.606 142.944 198.947 142.018 198.13 142.018C197.314 142.018 196.654 142.944 196.654 144.09Z" fill="#021317"/>
<path d="M224.241 134.402C224.871 134.537 225.475 134.77 226.031 135.093C226.534 135.407 226.895 135.878 226.801 136.317C226.659 137.04 225.466 137.338 224.414 137.416C222.086 137.601 219.743 137.351 217.506 136.679C216.721 136.443 215.936 136.098 215.637 135.532C215.056 134.245 217.459 133.852 218.416 133.79C220.378 133.696 222.342 133.902 224.241 134.402Z" fill="#021317"/>
<path d="M200.595 133.774C201.134 133.814 201.664 133.935 202.166 134.135C202.637 134.355 202.998 134.732 202.966 135.14C202.966 135.815 201.93 136.255 201.035 136.49C199.051 136.995 196.989 137.117 194.959 136.851C194.252 136.757 193.483 136.569 193.216 136.098C192.572 135.014 194.598 134.308 195.446 134.104C197.134 133.721 198.872 133.609 200.595 133.774Z" fill="#021317"/>
<path d="M336.833 307.898L218.934 266.856C218.934 266.856 204.803 316.801 179.352 333.287C176.455 335.199 173.276 336.645 169.932 337.573C167.623 338.197 165.242 338.514 162.85 338.515C137.446 338.515 111.116 287.879 97.9425 258.44C92.5413 246.335 89.354 237.809 89.354 237.809L132.532 211.478L141.952 226.222L159.223 253.117C159.223 253.117 173.009 227.697 181.205 220.349C189.401 213.001 213.062 213.614 213.062 213.614C220.096 239.944 259.914 212.389 259.914 212.389C259.914 212.389 289.353 210.238 298.805 213.959C309.89 218.167 347.4 280.296 336.833 307.898Z" fill="#2A4E96"/>
<path d="M282.476 301.226L248.704 338.516H236.049L221.996 287.519L269.162 269.761L275.599 250.464L282.476 301.226Z" fill="#0F2E6A"/>
<path d="M214.272 307.176C207.363 309.154 202.841 307.584 202.339 303.879C201.915 300.817 212.576 298.415 221.918 297.724C226.407 297.329 230.869 296.669 235.28 295.746" fill="#FFBE9D"/>
<path d="M235.279 295.746L247.652 329.864C247.652 329.864 208.729 337.62 205.259 333.993C203.155 331.827 204.851 330.162 204.851 330.162C204.851 330.162 201.004 331.418 199.308 329.707C198.835 329.195 198.539 328.544 198.466 327.851C198.392 327.158 198.545 326.46 198.9 325.86C198.9 325.86 195.415 326.457 195.132 323.222C194.818 319.69 204.411 313.048 214.303 307.176" fill="#FFBE9D"/>
<path d="M199.528 326.583L198.209 325.138C202.525 321.419 207.373 318.366 212.591 316.079L213.392 317.869C208.373 320.087 203.703 323.023 199.528 326.583Z" fill="#021317"/>
<path d="M205.338 330.979L204.286 329.33C208.173 326.904 212.229 324.758 216.423 322.909L217.176 324.714C213.091 326.529 209.136 328.622 205.338 330.979Z" fill="#021317"/>
<path d="M220.348 73.4352C222.42 72.9768 224.571 73.0099 226.628 73.5317C228.685 74.0536 230.592 75.0498 232.195 76.4406C233.798 77.8314 235.053 79.5781 235.86 81.5411C236.667 83.504 237.004 85.6286 236.842 87.7448C236.681 89.861 236.026 91.91 234.931 93.728C233.836 95.5459 232.33 97.0822 230.535 98.2139C228.74 99.3456 226.704 100.041 224.592 100.245C222.479 100.449 220.348 100.156 218.369 99.3889C206.091 94.6315 207.489 76.2928 220.348 73.4352Z" fill="#021317"/>
<path d="M336.833 307.899C329.564 327.541 293.514 334.59 268.644 337.103C254.764 338.516 244.355 338.516 244.355 338.516L230.93 290.125L249.002 283.562L275.694 273.89V250.323L336.833 307.899Z" fill="#2A4E96"/>
<path d="M181.88 273.592L179.352 333.255C176.453 335.157 173.275 336.592 169.932 337.51L181.88 273.592Z" fill="#0F2E6A"/>
<path d="M155.123 187.581C170.28 177.537 174.425 157.107 164.381 141.949C154.337 126.792 133.907 122.647 118.75 132.691C103.592 142.735 99.4471 163.165 109.491 178.322C119.535 193.48 139.965 197.625 155.123 187.581Z" fill="#74CEC8"/>
<path d="M90.0761 224.008C89.2607 223.374 88.583 222.58 88.0841 221.675C87.5853 220.771 87.2758 219.774 87.1744 218.746C87.0731 217.717 87.182 216.679 87.4946 215.695C87.8072 214.71 88.3169 213.799 88.9927 213.018L128.732 166.715L136.441 172.76L100.973 222.407C100.377 223.247 99.618 223.957 98.7404 224.495C97.8628 225.034 96.8853 225.388 95.8668 225.538C94.8483 225.688 93.81 225.629 92.8147 225.366C91.8194 225.103 90.8878 224.641 90.0761 224.008Z" fill="#74CEC8"/>
<path d="M159.522 175.681C155.459 180.852 149.509 184.2 142.98 184.989C136.451 185.778 129.875 183.944 124.697 179.889C119.958 176.221 116.707 170.962 115.545 165.083C114.382 159.204 115.387 153.103 118.373 147.908C121.359 142.712 126.125 138.774 131.79 136.819C137.455 134.865 143.636 135.027 149.191 137.276C151.197 138.076 153.091 139.132 154.827 140.416L155.298 140.793C156.275 141.549 157.194 142.379 158.046 143.274C162.138 147.6 164.539 153.254 164.81 159.203C165.081 165.152 163.204 171 159.522 175.681Z" fill="#E5F5FE"/>
<g opacity="0.5">
<path opacity="0.5" d="M154.827 140.416L142.847 185.007C138.097 185.555 133.289 184.718 129.002 182.599C124.716 180.479 121.132 177.166 118.684 173.059L149.191 137.276C151.197 138.076 153.091 139.132 154.827 140.416Z" fill="white"/>
</g>
<g opacity="0.5">
<path opacity="0.5" d="M159.522 175.68C158.144 177.463 156.528 179.048 154.717 180.39L158.046 143.383C162.109 147.703 164.492 153.334 164.763 159.258C165.033 165.183 163.174 171.008 159.522 175.68Z" fill="white"/>
</g>
<g opacity="0.5">
<path opacity="0.5" d="M142.173 135.706L115.717 155.332C116.968 149.393 120.349 144.118 125.224 140.502C130.098 136.886 136.127 135.18 142.173 135.706Z" fill="white"/>
</g>
<path d="M116.658 212.154C116.658 212.154 118.134 213.944 115.873 215.859C113.612 217.775 93.9862 213.991 91.5997 210.584C88.2397 205.779 101.805 188.304 109.64 188.775C115.921 189.152 127.476 202.906 126.817 206.329C126.22 209.469 122.892 208.527 122.892 208.527C123.186 209.148 123.268 209.848 123.127 210.52C122.985 211.192 122.627 211.799 122.107 212.248C120.285 213.755 116.658 212.154 116.658 212.154Z" fill="#FFBE9D"/>
<path d="M122.153 209.186C118.419 205.307 114.147 201.986 109.466 199.326L110.44 197.614C115.313 200.369 119.752 203.829 123.613 207.883L122.153 209.186Z" fill="#021317"/>
<path d="M116.046 212.923C112.556 210.248 108.883 207.819 105.055 205.653L105.982 203.926C109.904 206.129 113.657 208.622 117.208 211.384L116.046 212.923Z" fill="#021317"/>
<path d="M195.964 159.571C193.982 159.571 192.045 158.983 190.397 157.882C188.749 156.781 187.466 155.215 186.708 153.384C185.95 151.553 185.753 149.538 186.14 147.594C186.528 145.65 187.484 143.866 188.886 142.465C190.289 141.065 192.075 140.112 194.019 139.727C195.964 139.343 197.978 139.543 199.808 140.304C201.638 141.064 203.202 142.351 204.301 144C205.4 145.65 205.984 147.588 205.981 149.57C205.977 152.224 204.92 154.768 203.042 156.643C201.164 158.518 198.618 159.571 195.964 159.571ZM195.964 141.515C194.371 141.515 192.814 141.988 191.489 142.873C190.165 143.758 189.132 145.016 188.523 146.487C187.913 147.959 187.753 149.579 188.064 151.141C188.375 152.704 189.142 154.139 190.269 155.265C191.395 156.392 192.83 157.159 194.393 157.47C195.955 157.78 197.575 157.621 199.046 157.011C200.518 156.402 201.776 155.369 202.661 154.045C203.546 152.72 204.019 151.163 204.019 149.57C204.019 147.434 203.17 145.385 201.659 143.874C200.149 142.364 198.1 141.515 195.964 141.515Z" fill="#E5F5FE"/>
<path d="M218.636 159.571C216.655 159.571 214.717 158.983 213.069 157.882C211.422 156.781 210.138 155.215 209.38 153.384C208.622 151.553 208.425 149.538 208.813 147.594C209.201 145.65 210.156 143.866 211.559 142.465C212.961 141.065 214.748 140.112 216.692 139.727C218.636 139.343 220.651 139.543 222.481 140.304C224.311 141.064 225.874 142.351 226.973 144C228.072 145.65 228.657 147.588 228.654 149.57C228.649 152.224 227.592 154.768 225.714 156.643C223.836 158.518 221.29 159.571 218.636 159.571ZM218.636 141.515C217.043 141.515 215.486 141.988 214.161 142.873C212.837 143.758 211.805 145.016 211.195 146.487C210.585 147.959 210.426 149.579 210.737 151.141C211.047 152.704 211.814 154.139 212.941 155.265C214.067 156.392 215.503 157.159 217.065 157.47C218.627 157.78 220.247 157.621 221.719 157.011C223.191 156.402 224.448 155.369 225.334 154.045C226.219 152.72 226.691 151.163 226.691 149.57C226.691 147.434 225.842 145.385 224.332 143.874C222.821 142.364 220.773 141.515 218.636 141.515Z" fill="#E5F5FE"/>
<path d="M209.608 148.423H205.007V150.385H209.608V148.423Z" fill="#E5F5FE"/>
<path d="M251.056 134.73L227.174 148.507L228.155 150.207L252.037 136.43L251.056 134.73Z" fill="#E5F5FE"/>
<path d="M254.231 137.417C245.357 137.736 236.64 135.012 229.527 129.698C222.413 124.383 217.33 116.797 215.119 108.197C209.698 116.262 201.784 122.328 192.588 125.468V125.28C192.824 124.558 193.075 123.835 193.342 123.129C193.609 122.422 193.703 122.124 193.907 121.637C194.111 121.151 194.425 120.366 194.692 119.737C197.597 113.127 201.664 107.679 206.955 104.46C208.15 103.715 209.418 103.094 210.739 102.608C211.345 102.371 211.963 102.166 212.591 101.995C213.11 101.854 213.628 101.744 214.162 101.634C215.576 101.375 217.01 101.243 218.448 101.242H218.872C231.543 101.336 239.707 106.486 244.951 113.033C251.624 121.245 253.618 131.796 254.231 137.417Z" fill="#021317"/>
<path d="M123.28 29.304C123.28 35.448 125.368 40.68 129.544 45C133.768 49.32 138.904 51.48 144.952 51.48C151.048 51.48 156.184 49.32 160.36 45C164.584 40.68 166.696 35.448 166.696 29.304C166.696 23.112 164.584 17.856 160.36 13.536C156.184 9.216 151.048 7.056 144.952 7.056C138.904 7.056 133.768 9.216 129.544 13.536C125.368 17.856 123.28 23.112 123.28 29.304ZM127.24 47.304C122.44 42.36 120.04 36.36 120.04 29.304C120.04 22.248 122.44 16.248 127.24 11.304C132.088 6.312 137.992 3.816 144.952 3.816C151.96 3.816 157.864 6.288 162.664 11.232C167.512 16.176 169.936 22.2 169.936 29.304C169.936 36.36 167.512 42.36 162.664 47.304C157.864 52.248 151.96 54.72 144.952 54.72C137.992 54.72 132.088 52.248 127.24 47.304ZM181.217 29.304C181.217 35.448 183.305 40.68 187.481 45C191.705 49.32 196.841 51.48 202.889 51.48C208.985 51.48 214.121 49.32 218.297 45C222.521 40.68 224.633 35.448 224.633 29.304C224.633 23.112 222.521 17.856 218.297 13.536C214.121 9.216 208.985 7.056 202.889 7.056C196.841 7.056 191.705 9.216 187.481 13.536C183.305 17.856 181.217 23.112 181.217 29.304ZM185.177 47.304C180.377 42.36 177.977 36.36 177.977 29.304C177.977 22.248 180.377 16.248 185.177 11.304C190.025 6.312 195.929 3.816 202.889 3.816C209.897 3.816 215.801 6.288 220.601 11.232C225.449 16.176 227.873 22.2 227.873 29.304C227.873 36.36 225.449 42.36 220.601 47.304C215.801 52.248 209.897 54.72 202.889 54.72C195.929 54.72 190.025 52.248 185.177 47.304ZM258.595 7.632H242.611V30.744H258.235C261.883 30.744 264.571 29.64 266.299 27.432C268.075 25.224 268.963 22.488 268.963 19.224C268.963 15.96 268.099 13.224 266.371 11.016C264.691 8.76 262.099 7.632 258.595 7.632ZM258.379 33.984H242.611V54H239.299V4.392H258.595C263.203 4.392 266.611 5.832 268.819 8.712C271.075 11.544 272.203 15.048 272.203 19.224C272.203 23.4 271.075 26.904 268.819 29.736C266.563 32.568 263.083 33.984 258.379 33.984ZM279.09 41.112H282.33C282.618 43.848 283.89 46.272 286.146 48.384C288.45 50.448 291.33 51.48 294.786 51.48C298.578 51.48 301.65 50.592 304.002 48.816C306.354 46.992 307.77 44.856 308.25 42.408C309.114 36.36 305.634 32.424 297.81 30.6L290.898 28.944C283.266 27.312 279.45 23.304 279.45 16.92C279.45 13.176 280.986 10.056 284.058 7.56C287.13 5.064 290.682 3.816 294.714 3.816C298.986 3.816 302.538 4.992 305.37 7.344C308.202 9.696 309.714 12.84 309.906 16.776H306.666C306.474 13.848 305.25 11.496 302.994 9.72C300.786 7.944 298.026 7.056 294.714 7.056C291.546 7.056 288.762 7.992 286.362 9.864C283.962 11.736 282.762 14.088 282.762 16.92C282.762 21.528 285.69 24.504 291.546 25.848L298.53 27.432C302.898 28.44 306.306 30.216 308.754 32.76C311.202 35.256 312.09 38.664 311.418 42.984C310.794 46.152 309.042 48.912 306.162 51.264C303.282 53.568 299.49 54.72 294.786 54.72C290.37 54.72 286.722 53.352 283.842 50.616C280.962 47.88 279.378 44.712 279.09 41.112ZM322.688 41.904L322.544 4.392H325.784L325.568 41.904H322.688ZM322.04 53.712C321.464 53.136 321.176 52.464 321.176 51.696C321.176 50.928 321.464 50.28 322.04 49.752C322.616 49.224 323.312 48.96 324.128 48.96C324.944 48.96 325.64 49.224 326.216 49.752C326.84 50.28 327.152 50.928 327.152 51.696C327.152 52.464 326.84 53.136 326.216 53.712C325.64 54.24 324.944 54.504 324.128 54.504C323.312 54.504 322.616 54.24 322.04 53.712Z" fill="#4E8579"/>
<path d="M246.348 140.007C247.093 138.904 248.118 138.02 249.319 137.446C250.52 136.872 251.852 136.629 253.178 136.742C255.856 137.003 258.333 138.278 260.102 140.306C262.174 142.565 263.404 145.47 263.585 148.531C263.765 151.591 262.885 154.621 261.093 157.108C259.301 159.596 256.706 161.389 253.745 162.187C250.785 162.984 247.64 162.737 244.841 161.486" fill="#FFBE9D"/>
<path d="M254.874 154.342L252.911 154.201C253.025 152.598 252.805 150.989 252.264 149.475C251.724 147.962 250.875 146.577 249.771 145.409L250.509 143.76L256.428 143.901V145.864L252.629 145.77C254.303 148.301 255.093 151.315 254.874 154.342Z" fill="#021317"/>
<path d="M210.722 167.453L210.597 165.49C211.718 165.49 212.813 165.151 213.737 164.516C214.103 164.231 214.403 163.87 214.617 163.458C214.831 163.046 214.954 162.593 214.977 162.13L216.94 162.224C216.901 162.97 216.703 163.7 216.359 164.363C216.015 165.026 215.533 165.609 214.946 166.071C213.708 166.944 212.237 167.425 210.722 167.453Z" fill="#021317"/>
<path d="M230.82 243.422C224.287 243.532 217.888 241.552 212.56 237.769C205.039 232.195 201.318 222.524 203.485 214.218L205.385 214.72C203.406 222.241 206.845 231.081 213.722 236.183C220.002 240.815 228.873 242.464 237.556 240.752C245.812 238.849 253.437 234.847 259.694 229.134C265.986 223.393 271.736 217.086 276.871 210.292L278.441 211.517C273.225 218.388 267.391 224.768 261.013 230.578C254.501 236.556 246.557 240.753 237.948 242.762C235.6 243.214 233.212 243.434 230.82 243.422Z" fill="#021317"/>
<path d="M142.015 226.175L98.0523 258.393C92.6512 246.288 89.4639 237.762 89.4639 237.762L132.642 211.432L142.015 226.175Z" fill="white"/>
<path d="M268.613 337.102C254.733 338.515 244.323 338.516 244.323 338.516L230.93 290.125L249.002 283.562L268.613 337.102Z" fill="white"/>
<path d="M101.993 247.576C101.176 247.579 100.376 247.339 99.6948 246.887C99.0137 246.435 98.482 245.792 98.167 245.037C97.8521 244.283 97.768 243.452 97.9256 242.65C98.0831 241.848 98.4752 241.111 99.0521 240.532C99.6289 239.953 100.365 239.558 101.166 239.397C101.968 239.237 102.799 239.318 103.554 239.63C104.31 239.942 104.955 240.471 105.41 241.15C105.864 241.83 106.107 242.629 106.107 243.446C106.107 244.539 105.674 245.587 104.903 246.361C104.132 247.135 103.086 247.571 101.993 247.576ZM101.993 241.295C101.563 241.292 101.142 241.417 100.784 241.654C100.425 241.891 100.145 242.229 99.9788 242.625C99.8128 243.022 99.7686 243.459 99.8517 243.881C99.9348 244.303 100.141 244.69 100.445 244.994C100.749 245.298 101.137 245.505 101.559 245.588C101.98 245.671 102.417 245.627 102.814 245.461C103.211 245.295 103.549 245.015 103.786 244.656C104.023 244.297 104.147 243.876 104.144 243.446C104.14 242.877 103.912 242.332 103.51 241.93C103.107 241.527 102.562 241.299 101.993 241.295Z" fill="#021317"/>
<path d="M252.314 330.005C251.498 330.005 250.699 329.763 250.02 329.309C249.341 328.856 248.812 328.211 248.499 327.456C248.187 326.702 248.105 325.871 248.264 325.07C248.424 324.269 248.817 323.534 249.395 322.956C249.972 322.379 250.708 321.985 251.509 321.826C252.31 321.667 253.14 321.748 253.895 322.061C254.649 322.373 255.294 322.903 255.748 323.582C256.202 324.261 256.444 325.059 256.444 325.876C256.444 326.971 256.009 328.021 255.234 328.796C254.46 329.57 253.41 330.005 252.314 330.005ZM252.314 323.725C251.885 323.725 251.466 323.852 251.109 324.091C250.752 324.33 250.475 324.669 250.311 325.066C250.148 325.463 250.106 325.899 250.191 326.32C250.275 326.741 250.483 327.127 250.788 327.429C251.093 327.732 251.48 327.937 251.901 328.019C252.323 328.1 252.759 328.055 253.155 327.889C253.55 327.723 253.887 327.442 254.124 327.084C254.36 326.726 254.484 326.305 254.481 325.876C254.477 325.304 254.247 324.757 253.841 324.354C253.435 323.951 252.886 323.725 252.314 323.725Z" fill="#021317"/>
<path d="M53.6185 338.091C46.6944 327.87 40.6338 319.485 37.996 307.411C35.3582 295.337 36.4259 282.117 43.0204 271.66C49.6148 261.203 62.1756 254.201 74.4224 256.163C85.1932 257.89 94.0329 266.055 99.3241 275.585C104.615 285.116 106.908 295.997 109.122 306.626C111.349 301.874 114.938 297.891 119.433 295.183C123.928 292.474 129.127 291.162 134.369 291.412C139.6 291.822 144.612 293.686 148.84 296.793C153.068 299.9 156.344 304.127 158.297 308.997C160.123 313.916 160.635 319.225 159.781 324.402C158.927 329.579 156.738 334.443 153.43 338.515" fill="#E5F5FE"/>
<path d="M269.115 339.144C266.259 335.65 264.37 331.468 263.637 327.015C262.904 322.563 263.353 317.996 264.938 313.771C266.612 309.569 269.432 305.921 273.076 303.243C276.721 300.564 281.044 298.962 285.554 298.619C289.608 298.455 293.634 299.355 297.232 301.231C300.83 303.107 303.873 305.893 306.059 309.312C307.739 301.383 309.67 293.312 313.705 286.059C318.714 277.046 326.659 270.86 334.965 269.525C344.888 267.955 355.941 273.372 361.829 282.777C366.963 290.942 368.533 301.979 366.115 313.049C364.027 322.595 359.427 329.362 354.104 337.212L353.068 338.782L351.498 337.683L352.518 336.113C357.747 328.436 362.237 321.794 364.247 312.562C366.555 301.995 365.079 291.491 360.227 283.75C354.732 275.005 344.527 269.918 335.326 271.394C327.601 272.634 320.174 278.459 315.464 286.953C311.13 294.804 309.262 303.675 307.472 312.311L305.604 312.499C303.83 308.766 300.992 305.641 297.447 303.518C293.901 301.395 289.807 300.368 285.679 300.566C281.549 300.914 277.596 302.398 274.257 304.853C270.918 307.308 268.323 310.639 266.759 314.477C265.331 318.379 264.936 322.583 265.612 326.683C266.289 330.782 268.015 334.637 270.622 337.872L269.115 339.144Z" fill="#021317"/>
<path d="M287.846 125.39C287.343 125.39 286.841 125.39 286.276 125.312C283.441 125.009 280.829 123.633 278.978 121.464C277.127 119.295 276.177 116.5 276.324 113.653C276.471 110.805 277.703 108.122 279.767 106.156C281.831 104.189 284.571 103.088 287.422 103.079C289.407 102.975 291.381 103.437 293.115 104.409C294.85 105.382 296.272 106.826 297.219 108.574C298.209 110.495 298.67 112.643 298.557 114.8C298.444 116.958 297.76 119.046 296.576 120.852C295.621 122.283 294.32 123.449 292.794 124.243C291.267 125.036 289.565 125.431 287.846 125.39ZM286.527 123.365C288.145 123.631 289.805 123.435 291.316 122.799C292.827 122.163 294.128 121.113 295.068 119.769C296.055 118.257 296.624 116.51 296.718 114.707C296.812 112.903 296.427 111.107 295.602 109.501C294.814 108.072 293.638 106.895 292.21 106.106C290.782 105.317 289.161 104.948 287.532 105.042C285.174 105.034 282.903 105.934 281.19 107.554C279.477 109.175 278.453 111.392 278.33 113.747C278.207 116.102 278.994 118.414 280.529 120.204C282.064 121.995 284.228 123.126 286.574 123.365H286.527Z" fill="#021317"/>
<path d="M66.6346 339.065L65.0645 337.966C67.8559 334.038 71.0791 330.436 74.6735 327.227C82.524 320.193 90.6257 316.613 98.225 316.864C108.431 317.209 117.679 324.322 125.717 338.013L124.022 339.018C116.344 325.939 107.646 319.141 98.1622 318.827H97.4713C80.6085 318.811 66.7759 338.861 66.6346 339.065Z" fill="white"/>
<path d="M54.9052 294.741C60.8496 302.735 68.8699 308.947 78.0955 312.703H78.2211C82.9373 308.552 86.3048 303.086 87.8911 297.006C89.4774 290.927 89.2102 284.512 87.1236 278.585C84.1404 270.578 77.9699 264.14 74.5628 256.305C71.6424 249.46 70.9673 241.892 69.46 234.607C69.2088 233.46 68.9575 232.314 68.6592 231.184L68.2667 231.309C67.1108 231.609 65.8845 231.458 64.8356 230.887C63.7867 230.317 62.9936 229.37 62.6166 228.237C62.2397 227.104 62.307 225.87 62.805 224.785C63.303 223.7 64.1945 222.844 65.2992 222.391C63.863 219.594 61.87 217.12 59.4427 215.122C54.8423 211.401 47.4943 210.192 43.255 214.305C39.8479 217.602 39.6281 222.988 40.4916 227.651C42.5641 238.752 49.4726 248.675 50.4304 259.917C51.0113 266.668 49.3941 273.404 49.5982 280.171C49.6792 282.251 50.0383 284.31 50.6659 286.294C50.8426 286.21 51.0265 286.142 51.2154 286.09C56.7265 284.457 59.4114 292.386 54.9052 294.741Z" fill="#E5F5FE"/>
<path d="M54.9359 234.247L53.0615 234.829L85.3369 338.773L87.2113 338.191L54.9359 234.247Z" fill="#021317"/>
<path d="M41.2431 243.53L39.9102 244.97L62.889 266.234L64.222 264.794L41.2431 243.53Z" fill="#021317"/>
<path d="M80.5044 253.106L69.0322 285.738L70.8838 286.389L82.3559 253.757L80.5044 253.106Z" fill="#021317"/>
<path d="M67.5282 217.727L58.5771 252.388L60.4774 252.878L69.4285 218.217L67.5282 217.727Z" fill="#021317"/>
<path d="M47.1599 274.387L46.0107 275.978L71.6833 294.521L72.8325 292.93L47.1599 274.387Z" fill="#021317"/>
</svg>
